<mxfile host="app.diagrams.net" agent="Mozilla/5.0 (Windows NT 10.0; Win64; x64) AppleWebKit/537.36 (KHTML, like Gecko) Chrome/128.0.0.0 YaBrowser/24.10.0.0 Safari/537.36" version="24.8.6">
  <diagram name="Страница — 1" id="FZuVYSKQKKseB5JXQPXO">
    <mxGraphModel dx="1386" dy="783" grid="1" gridSize="10" guides="1" tooltips="1" connect="1" arrows="1" fold="1" page="1" pageScale="1" pageWidth="827" pageHeight="1169" math="0" shadow="0">
      <root>
        <mxCell id="0" />
        <mxCell id="1" parent="0" />
        <mxCell id="I4an20wXBALhQgGUlNau-5" value="" style="edgeStyle=orthogonalEdgeStyle;rounded=0;orthogonalLoop=1;jettySize=auto;html=1;" edge="1" parent="1" source="6BPBLCMizLLzq73NnSz2-1" target="I4an20wXBALhQgGUlNau-4">
          <mxGeometry relative="1" as="geometry" />
        </mxCell>
        <mxCell id="6BPBLCMizLLzq73NnSz2-1" value="Начало" style="strokeWidth=2;html=1;shape=mxgraph.flowchart.terminator;whiteSpace=wrap;" parent="1" vertex="1">
          <mxGeometry x="360" y="40" width="130" height="40" as="geometry" />
        </mxCell>
        <mxCell id="6BPBLCMizLLzq73NnSz2-2" value="Конец" style="strokeWidth=2;html=1;shape=mxgraph.flowchart.terminator;whiteSpace=wrap;" parent="1" vertex="1">
          <mxGeometry x="360" y="430" width="130" height="40" as="geometry" />
        </mxCell>
        <mxCell id="I4an20wXBALhQgGUlNau-1" style="edgeStyle=orthogonalEdgeStyle;rounded=0;orthogonalLoop=1;jettySize=auto;html=1;exitX=0.5;exitY=1;exitDx=0;exitDy=0;entryX=0.5;entryY=0;entryDx=0;entryDy=0;" edge="1" parent="1" source="I4an20wXBALhQgGUlNau-2" target="I4an20wXBALhQgGUlNau-3">
          <mxGeometry relative="1" as="geometry" />
        </mxCell>
        <mxCell id="I4an20wXBALhQgGUlNau-2" value="Создание файла csv таблицы &quot;Должности ИБ&quot;" style="rounded=0;whiteSpace=wrap;html=1;" vertex="1" parent="1">
          <mxGeometry x="356.25" y="240" width="137.5" height="50" as="geometry" />
        </mxCell>
        <mxCell id="I4an20wXBALhQgGUlNau-7" value="" style="edgeStyle=orthogonalEdgeStyle;rounded=0;orthogonalLoop=1;jettySize=auto;html=1;" edge="1" parent="1" source="I4an20wXBALhQgGUlNau-3" target="6BPBLCMizLLzq73NnSz2-2">
          <mxGeometry relative="1" as="geometry" />
        </mxCell>
        <mxCell id="I4an20wXBALhQgGUlNau-3" value="Вывод: файл CSV" style="shape=parallelogram;perimeter=parallelogramPerimeter;whiteSpace=wrap;html=1;fixedSize=1;" vertex="1" parent="1">
          <mxGeometry x="340" y="330" width="170" height="60" as="geometry" />
        </mxCell>
        <mxCell id="I4an20wXBALhQgGUlNau-6" value="" style="edgeStyle=orthogonalEdgeStyle;rounded=0;orthogonalLoop=1;jettySize=auto;html=1;" edge="1" parent="1" source="I4an20wXBALhQgGUlNau-4" target="I4an20wXBALhQgGUlNau-2">
          <mxGeometry relative="1" as="geometry" />
        </mxCell>
        <mxCell id="I4an20wXBALhQgGUlNau-4" value="Ввод фиксированного списка сотрудников" style="rounded=0;whiteSpace=wrap;html=1;" vertex="1" parent="1">
          <mxGeometry x="356.25" y="130" width="137.5" height="50" as="geometry" />
        </mxCell>
      </root>
    </mxGraphModel>
  </diagram>
</mxfile>
